<?xml version="1.0" encoding="UTF-8"?>
<svg xmlns="http://www.w3.org/2000/svg" viewBox="0 0 315.37332 434.17334" width="315.37332" height="434.17334" aria-hidden="true">
  <g transform="matrix(1.3333333,0,0,-1.3333333,0,434.17333)">
    <g transform="scale(0.1)">
      <path
        d="m 1559.43,2224.78 c 41.66,0 764.24,0.1 805.9,0.1 v 587.36 c -13.29,12.68 -450.16,432 -462.72,444.1 H 447.715 C 435.063,3243.81 12.8008,2825.11 0,2812.33 V 1734.96 c 12.5039,-12.63 416.957,-422.03 429.637,-434.8 H 1559.43 V 675.41 h -746.7 v 356.13 c -41.73,0 -771.0581,0 -812.73,-0.05 L 0,444.039 C 12.7461,431.32 435.063,12.5391 447.715,-0.0117188 H 1902.61 C 1915.17,12.0898 2352.04,431.422 2365.33,444.242 V 1521.37 c -12.48,12.68 -416.94,422.07 -429.67,434.91 H 812.73 v 624.68 h 746.7 v -356.18"
        fill="#ffffff"
        fill-rule="nonzero"
      />
    </g>
  </g>
</svg>
