<svg xmlns="http://www.w3.org/2000/svg" viewBox="0 0 200 220" aria-hidden="true">
  <defs>
    <radialGradient id="glow" cx="50%" cy="45%" r="55%">
      <stop offset="0%" stop-color="#fff9e6" stop-opacity="0.9"/>
      <stop offset="45%" stop-color="#ffe8a0" stop-opacity="0.35"/>
      <stop offset="100%" stop-color="#0D1B40" stop-opacity="0"/>
    </radialGradient>
    <radialGradient id="orange" cx="40%" cy="35%" r="65%">
      <stop offset="0%" stop-color="#ff9a4a"/>
      <stop offset="100%" stop-color="#F76900"/>
    </radialGradient>
  </defs>
  <ellipse cx="100" cy="200" rx="70" ry="12" fill="#000" opacity="0.25"/>
  <circle cx="100" cy="100" r="88" fill="url(#glow)"/>
  <circle cx="100" cy="100" r="72" fill="url(#orange)" stroke="#2a1810" stroke-width="3"/>
  <ellipse cx="128" cy="72" rx="14" ry="22" fill="#fff" opacity="0.35" transform="rotate(-25 128 72)"/>
  <path fill="#2d8a3e" stroke="#1a5c28" stroke-width="2" d="M100 28c-8 0-14 6-14 14v8h-4c-2 0-4 2-4 4v6c0 16 14 28 34 28s34-12 34-28v-6c0-2-2-4-4-4h-4v-8c0-8-6-14-14-14z"/>
  <ellipse cx="78" cy="22" rx="18" ry="10" fill="#3cb371" stroke="#1a5c28" stroke-width="2" transform="rotate(-35 78 22)"/>
  <circle cx="72" cy="92" r="14" fill="#1a1a1a"/>
  <circle cx="76" cy="88" r="4" fill="#fff"/>
  <circle cx="128" cy="92" r="14" fill="#1a1a1a"/>
  <circle cx="132" cy="88" r="4" fill="#fff"/>
  <path fill="#fff" d="M78 118c12 18 32 18 44 0"/>
  <ellipse cx="88" cy="110" rx="8" ry="5" fill="#ffb4a8" opacity="0.6"/>
  <ellipse cx="112" cy="110" rx="8" ry="5" fill="#ffb4a8" opacity="0.6"/>
  <circle cx="45" cy="100" r="2" fill="#fff" opacity="0.8"/>
  <circle cx="155" cy="85" r="1.5" fill="#fff" opacity="0.7"/>
  <circle cx="130" cy="130" r="1" fill="#fff" opacity="0.6"/>
</svg>
