<?xml version="1.0" encoding="UTF-8"?>
<svg id="Layer_1" xmlns="http://www.w3.org/2000/svg" version="1.1" viewBox="0 0 638.45 402.11">
  <!-- Generator: Adobe Illustrator 30.2.1, SVG Export Plug-In . SVG Version: 2.1.1 Build 1)  -->
  <defs>
    <style>
      .st0 {
        fill: #f26a21;
      }
    </style>
  </defs>
  <path class="st0" d="M251.73,338.99c-5.6,0-10.19-4.45-10.19-10.04s4.59-10.19,10.19-10.19h173.15c5.59,0,10.04,4.59,10.04,10.19v45.62l173.15-99.99-173.15-99.99v45.62c0,5.59-4.45,10.04-10.04,10.04h-173.15c-5.6,0-10.19-4.44-10.19-10.04s4.59-10.19,10.19-10.19h162.97v-52.94h.14c0-1.72.43-3.44,1.29-5.02,2.87-4.88,9.04-6.6,13.77-3.73l203.42,117.35c1.43.86,2.87,2.15,3.73,3.73,2.87,4.88,1.15,11.05-3.73,13.91l-202.85,117.06c-1.58,1.15-3.45,1.73-5.59,1.73-5.6,0-10.19-4.45-10.19-10.04v-53.08h-162.97Z"/>
  <path class="st0" d="M386.73,63.12c5.59,0,10.19,4.59,10.19,10.19s-4.59,10.04-10.19,10.04h-173.16c-5.6,0-10.18-4.45-10.18-10.04V27.69L30.23,127.67l173.16,99.99v-45.62c0-5.6,4.59-10.18,10.18-10.18h173.16c5.59,0,10.19,4.58,10.19,10.18s-4.59,10.04-10.19,10.04h-162.97v53.08h-.14c0,1.73-.43,3.44-1.29,5.02-2.87,4.73-9.04,6.45-13.77,3.59L5.13,136.43c-1.58-.86-2.87-2.15-3.73-3.73-2.87-4.88-1.15-11.05,3.58-13.77L207.83,1.72c1.73-1,3.59-1.72,5.74-1.72,5.59,0,10.19,4.58,10.19,10.18v52.94h162.97Z"/>
</svg>