<?xml version="1.0" encoding="UTF-8"?>
<svg id="svg4763" xmlns="http://www.w3.org/2000/svg" version="1.1" xmlns:cc="http://creativecommons.org/ns#" xmlns:dc="http://purl.org/dc/elements/1.1/" xmlns:inkscape="http://www.inkscape.org/namespaces/inkscape" xmlns:rdf="http://www.w3.org/1999/02/22-rdf-syntax-ns#" xmlns:sodipodi="http://sodipodi.sourceforge.net/DTD/sodipodi-0.dtd" xmlns:svg="http://www.w3.org/2000/svg" viewBox="0 0 295.87 365.95">
  <!-- Generator: Adobe Illustrator 30.2.1, SVG Export Plug-In . SVG Version: 2.1.1 Build 1)  -->
  <defs>
    <style>
      .st0 {
        fill: #f76900;
      }
    </style>
  </defs>
  <sodipodi:namedview id="base" bordercolor="#666666" borderopacity="1.0" inkscape:current-layer="layer1" inkscape:cx="26.429013" inkscape:cy="19.546936" inkscape:document-units="px" inkscape:object-nodes="true" inkscape:pageopacity="0.0" inkscape:pageshadow="2" inkscape:snap-bbox="true" inkscape:window-height="716" inkscape:window-maximized="1" inkscape:window-width="1366" inkscape:window-x="-8" inkscape:window-y="-8" inkscape:zoom="9.064225" pagecolor="#ffffff" showgrid="true" units="px">
    <inkscape:grid id="grid5311" empspacing="4" type="xygrid"/>
  </sodipodi:namedview>
  <g id="layer1" inkscape:groupmode="layer" inkscape:label="Layer 1">
    <path class="st0" d="M147.94,365.95C66.36,365.95,0,306.57,0,233.58S66.36,101.22,147.94,101.22c38.64,0,74.46,15.2,100.83,42.79,24.99,26.13,39.31,61.62,39.31,97.36s-14.13,67.47-39.8,90.04c-25.32,22.27-60.96,34.54-100.35,34.54ZM147.94,116.79c-72.99,0-132.36,52.39-132.36,116.79s59.38,116.79,132.36,116.79,124.58-44.82,124.58-109c0-59.91-47.63-124.58-124.58-124.58Z"/>
    <path class="st0" d="M147.92,147.83c-4.08,0-7.51-3.18-7.76-7.31-2.28-37.26-9.15-71.56-22.96-114.68-1.31-4.1.95-8.48,5.04-9.79,4.09-1.31,8.48.94,9.79,5.04,14.23,44.42,21.31,79.85,23.67,118.47.26,4.29-3,7.98-7.3,8.25-.16,0-.32.01-.48.01Z"/>
    <path class="st0" d="M147.94,85.65c-2.65,0-5.13-1.35-6.56-3.59-1.47-2.3-1.63-5.2-.42-7.65,2.57-5.19,25.81-51.09,50-64.14,29.14-15.72,95.17-8.79,97.97-8.49,2.92.32,5.42,2.25,6.45,5,1.03,2.75.43,5.85-1.56,8.01-1.73,1.88-42.66,46.12-71.04,58.92-23.11,10.43-72.53,11.87-74.62,11.92-.07,0-.14,0-.21,0ZM253.1,15.59c-20.08,0-42.59,1.82-54.75,8.39-12.92,6.97-27.86,29.49-36.99,45.39,15.84-1.1,41.53-3.75,55-9.83,17.08-7.71,40.7-29.68,54.56-43.49-5.43-.27-11.51-.45-17.82-.45Z"/>
    <path class="st0" d="M155.61,147.94h-23.13c-4.3,0-7.79-3.49-7.79-7.79s3.49-7.79,7.79-7.79h23.13c4.3,0,7.79,3.49,7.79,7.79s-3.49,7.79-7.79,7.79Z"/>
  </g>
</svg>