<?xml version="1.0" encoding="UTF-8"?><svg id="b" xmlns="http://www.w3.org/2000/svg" viewBox="0 0 32 32"><defs><style>.d{fill:#f26a21;}</style></defs><g id="c"><path class="d" d="M26.99,8h-3.639999c.08-.27.139999-.56.139999-.86,0-1.74-1.41-3.14-3.139999-3.14-.48,0-.959999.11-1.389999.33-.75.37-1.17,1-1.75,1.58-.370001.37-.809999.8-1.209999,1.2-.39-.39-.84-.83-1.21-1.2-.58-.58-1-1.21-1.75-1.58-.43-.21-.91-.33-1.39-.33-1.74,0-3.14,1.41-3.14,3.14,0,.3.06.58.14.86H3.98v5h1.01v15h22v-15h1.030001v-5h-1.030001ZM13.99,27H5.99v-14h8v14ZM13.99,12H4.979999v-3h9.01v3ZM9.68,8c-.12-.26-.19-.55-.19-.86,0-1.18.96-2.14,2.14-2.14.33,0,.65.08.94.22.38.19.66.5,1.02.89.15.17.31.34.47.5.22.22.46.46.71.7.19.19.39.38.57.56v.12h-5.67l.01.010001ZM16.99,27h-2V9h2v18ZM16.629999,8v-.12c.18-.18.370001-.37.57-.56.25-.24.49-.48.709999-.7.17-.17.32-.34.469999-.5.35-.39.629999-.7,1.02-.89.290001-.14.620001-.22.940001-.22,1.18,0,2.139999.96,2.139999,2.14,0,.31-.07.59-.190001.86h-5.67l.010002-.01ZM25.99,27h-8v-14h8v14ZM27.02,12h-9.030001v-3h9.029999l.000002,3Z"/></g></svg>