<?xml version="1.0" encoding="UTF-8"?><svg id="b" xmlns="http://www.w3.org/2000/svg" viewBox="0 0 32 32"><defs><style>.d{fill:#f26a21;}</style></defs><g id="c"><path class="d" d="M29.499999,13.880001c-.32-.75-.780001-1.43-1.35-2s-1.25-1.03-2-1.35-1.58-.5-2.450001-.5h-.17c-.059999,0-.110001.01-.17.02-.059999,0-.110001.01-.17.02s-.110001.01-.17.02v-.080002c0-.97-.200001-1.89-.549999-2.73s-.870001-1.59-1.5-2.23-1.389999-1.15-2.23-1.5-1.76-.55-2.73-.55-1.89.2-2.73.55-1.59.87-2.23,1.5c-.63.63-1.15,1.39-1.5,2.23-.35.84-.55,1.76-.55,2.73,0,.14,0,.29.02.43.01.14.03.28.05.42s.04.28.07.41.06.27.09.41c-.13-.04-.26-.08-.39-.11s-.27-.06-.4-.08c-.14-.02-.27-.04-.41-.05-.14-.01-.28-.02-.42-.02-.77,0-1.51.16-2.18.44s-1.27.69-1.78,1.2-.92,1.11-1.2,1.78-.44,1.41-.44,2.18v1.98l4,3.99h5v-1h-4.580001l-3.41-3.41v-1.57c0-.620001.12-1.23.36-1.79.23-.55.56-1.04.99-1.46.42-.42.92-.76,1.46-.99.57-.24,1.17-.36,1.79-.36.11,0,.22,0,.33.02.11.01.22.03.33.04.11.02.22.04.33.07s.23.06.34.09l1.68.51-.42-1.71c-.03-.12-.06-.24-.08-.36-.02-.12-.04-.24-.06-.36s-.03-.24-.04-.36c0-.12-.01-.24-.01-.36,0-.81.16-1.6.47-2.34.3-.72.74-1.36,1.29-1.91.55-.55,1.19-.99,1.91-1.29.74-.31,1.53-.47,2.339999-.47s1.6.16,2.34.47c.719999.3,1.360001.74,1.91,1.29s.99,1.19,1.290001,1.91c.309999.72.459999,1.49.469999,2.28v1.25l1.1-.12c.059999,0,.129999-.02.24-.03h.110001s.08-.02.120001-.03h.09c.719999,0,1.41.14,2.07.42.629999.27,1.200001.65,1.690001,1.14.49.49.870001,1.059999,1.139999,1.690001.280001.65.42,1.35.42,2.059999s-.139999,1.41-.42,2.059999c-.27.629999-.65,1.200001-1.139999,1.690001-.58.58-1.18,1.039999-1.780001,1.370001-.68.370001-1.34.559999-1.98.559999h-2.68v1h2.67c.870001,0,1.700001-.27,2.450001-.68s1.43-.969999,2-1.539999,1.030001-1.25,1.35-2,.5-1.58.5-2.450001-.18-1.7-.5-2.45l.009998.009998Z"/><polygon class="d" points="16.349999 18.81 13.519999 15.99 10.689999 18.81 11.399999 19.520001 13.019999 17.9 13.019999 28.99 14.019999 28.99 14.019999 17.9 15.639999 19.520001 16.349999 18.81"/><polygon class="d" points="19.019999 28.06 19.019999 16.99 18.019999 16.99 18.019999 28.06 16.399998 26.440001 15.689999 27.15 18.519999 29.98 21.349999 27.15 20.64 26.440001 19.019999 28.06"/></g></svg>