<?xml version="1.0" encoding="UTF-8"?><svg id="b" xmlns="http://www.w3.org/2000/svg" viewBox="0 0 32 32"><defs><style>.d{fill:#f26a21;}</style></defs><g id="c"><path class="d" d="M18.535626,5.544375c-1.789999-1.79-4.15-2.69-6.5-2.69s-4.71.9-6.5,2.69c-3.59,3.59-3.59,9.41,0,12.999999,1.79,1.790001,4.15,2.690001,6.5,2.690001s4.710001-.9,6.5-2.690001c3.59-3.59,3.59-9.41,0-12.999999ZM12.035626,20.234375c-2.190001,0-4.25-.85-5.79-2.4-3.19-3.190001-3.19-8.39,0-11.59,1.55-1.55,3.599999-2.4,5.79-2.4s4.25.85,5.789999,2.4c3.190001,3.190001,3.190001,8.39,0,11.59-1.549999,1.549999-3.6,2.4-5.789999,2.4Z"/><path class="d" d="M16.455626,7.624375l-.71.71c2.04,2.04,2.04,5.37,0,7.42l.71.709999c2.440001-2.440001,2.440001-6.4,0-8.83v-.009999Z"/><path class="d" d="M29.915625,26.654375h0l-8.950001-8.93-1.16,1.16h0l-2.09,2.09.09.09h0l8.950001,8.93,1.16-1.16h0l2.09-2.09-.09-.09ZM27.215624,28.134375l-.450001.450001-7.57-7.549999v-.02l-.040001-.059999,1.370001-1.370001.450001-.450001,7.57,7.549999v.02l.040001.059999-1.370001,1.370001Z"/></g></svg>