<?xml version="1.0" encoding="UTF-8"?><svg id="b" xmlns="http://www.w3.org/2000/svg" viewBox="0 0 32 32"><defs><style>.d{fill:#f26a21;}</style></defs><g id="c"><path class="d" d="M12,14.99l-4,4v8h16v-8l-4-4h-8ZM23,25.99h-14v-6.59l3.41-3.41h7.17l3.41,3.41v6.59h.01Z"/><path class="d" d="M16,12.99c2.200001,0,3.99-1.79,3.99-3.99s-1.789999-3.99-3.99-3.99-3.99,1.79-3.99,3.99,1.79,3.99,3.99,3.99ZM16,6.01c1.65,0,2.99,1.34,2.99,2.99s-1.34,2.99-2.99,2.99-2.99-1.34-2.99-2.99,1.34-2.99,2.99-2.99Z"/><polygon class="d" points="2 19.99 2 26.99 7.01 26.99 7.01 25.99 3 25.99 3 20.4 5.41 17.99 7.98 17.99 7.98 16.99 5 16.99 2 19.99"/><path class="d" d="M8.5,15.99c1.93,0,3.5-1.57,3.5-3.5s-1.57-3.5-3.5-3.5-3.5,1.57-3.5,3.5,1.57,3.5,3.5,3.5ZM8.5,10.059999c1.34,0,2.43,1.09,2.43,2.43s-1.09,2.43-2.43,2.43-2.43-1.09-2.43-2.43,1.09-2.43,2.43-2.43Z"/><polygon class="d" points="27 16.99 24.02 16.99 24.02 17.99 26.59 17.99 29 20.4 29 25.99 24.99 25.99 24.99 26.99 30 26.99 30 19.99 27 16.99"/><path class="d" d="M23.5,15.99c1.93,0,3.5-1.57,3.5-3.5s-1.57-3.5-3.5-3.5-3.5,1.57-3.5,3.5,1.57,3.5,3.5,3.5ZM23.5,10.059999c1.34,0,2.43,1.09,2.43,2.43s-1.09,2.43-2.43,2.43-2.43-1.09-2.43-2.43,1.09-2.43,2.43-2.43Z"/></g></svg>