<?xml version="1.0" encoding="UTF-8" standalone="no"?>
<!-- Created with Inkscape (http://www.inkscape.org/) -->

<svg
   version="1.1"
   id="svg2"
   width="527.41333"
   height="99.760002"
   viewBox="0 0 527.41333 99.760002"
   sodipodi:docname="SYRACUSE_Horizontal_1Line_ORANGE_RGB.eps"
   xmlns:inkscape="http://www.inkscape.org/namespaces/inkscape"
   xmlns:sodipodi="http://sodipodi.sourceforge.net/DTD/sodipodi-0.dtd"
   xmlns="http://www.w3.org/2000/svg"
   xmlns:svg="http://www.w3.org/2000/svg">
  <defs
     id="defs6" />
  <sodipodi:namedview
     id="namedview4"
     pagecolor="#ffffff"
     bordercolor="#111111"
     borderopacity="1"
     inkscape:showpageshadow="0"
     inkscape:pageopacity="0"
     inkscape:pagecheckerboard="1"
     inkscape:deskcolor="#d1d1d1" />
  <g
     id="g8"
     inkscape:groupmode="layer"
     inkscape:label="ink_ext_XXXXXX"
     transform="matrix(1.3333333,0,0,-1.3333333,0,99.76)">
    <g
       id="g10"
       transform="scale(0.1)">
      <path
         d="m 765.695,227.719 -16.277,76.562 20.684,7.481 c 12.753,-28.164 37.832,-63.809 83.593,-63.809 28.614,0 57.645,15.848 57.645,52.801 0,70.41 -149.168,55.449 -149.168,144.777 0,52.801 40.488,79.207 87.129,79.207 31.238,0 48.847,-13.64 54.558,-20.683 l 5.286,14.082 h 17.605 l 17.598,-69.086 -20.684,-7.481 c -12.324,26.848 -37.84,56.325 -74.805,56.325 -32.117,0 -47.078,-18.922 -47.078,-42.688 0,-63.805 149.168,-47.519 149.168,-144.324 0,-65.129 -55.449,-89.766 -99.441,-89.766 -25.528,0 -45.774,8.36 -63.371,20.242 l -5.282,-13.64 h -17.16"
         style="fill:#f2571a;fill-opacity:1;fill-rule:nonzero;stroke:none"
         id="path12" />
      <path
         d="m 1026.64,130.91 c -14.08,-6.16 -25.95,0 -29.038,10.559 l 44.438,86.238 -66.88,148.742 c -5.285,11.879 -7.922,14.961 -25.957,19.36 v 16.718 h 80.527 v -16.718 l -21.56,-5.286 50.59,-113.089 49.73,113.531 -20.68,4.844 v 16.718 h 67.32 v -16.718 c -11,-2.641 -19.36,-6.606 -25.08,-18.922 l -69.97,-153.574 -33.44,-92.403"
         style="fill:#f2571a;fill-opacity:1;fill-rule:nonzero;stroke:none"
         id="path14" />
      <path
         d="m 1282.76,370.285 c -1.77,6.602 -8.81,13.199 -17.61,13.199 -13.63,0 -27.72,-11.879 -36.96,-23.316 V 249.711 l 22,-5.273 v -16.731 h -74.81 v 16.731 l 17.6,4.394 v 126.293 l -22,6.16 v 15.403 c 21.56,3.519 32.13,10.562 41.81,25.078 l 15.4,-2.637 -2.2,-39.606 c 10.12,17.606 26.85,39.606 53.24,39.606 12.77,0 26.4,-7.918 26.4,-24.199 0,-15.407 -11.44,-24.645 -22.87,-24.645"
         style="fill:#f2571a;fill-opacity:1;fill-rule:nonzero;stroke:none"
         id="path16" />
      <path
         d="m 1479.46,250.16 4.39,-8.359 c -1.32,-3.086 -13.63,-19.367 -33.88,-19.367 -19.36,0 -28.16,11.445 -28.6,22.882 -10.12,-15.402 -29.92,-24.211 -53.68,-24.211 -36.96,0 -53.68,24.211 -53.68,44.016 0,30.801 19.35,47.957 53.68,54.121 l 52.8,9.676 v 39.605 c 0,15.844 -11,27.723 -28.16,27.723 -16.72,0 -25.08,-7.039 -32.12,-14.961 5.72,-26.84 -18.49,-40.48 -40.93,-28.168 0.88,40.051 40.05,66.012 77.01,66.012 43.12,0 59.41,-25.082 59.41,-57.641 V 258.957 c 0,-7.039 4.39,-12.324 10.99,-12.324 6.16,0 11.01,2.199 12.77,3.527 m -58.97,25.516 v 32.121 l -43.12,-8.359 c -11.44,-2.2 -29.49,-8.801 -29.49,-28.606 0,-14.082 10.12,-26.394 29.93,-26.394 21.12,0 36.96,14.082 42.68,31.238"
         style="fill:#f2571a;fill-opacity:1;fill-rule:nonzero;stroke:none"
         id="path18" />
      <path
         d="m 1653.71,383.93 c 0,-13.203 -12.76,-21.125 -25.08,-21.563 -7.03,17.602 -18.92,29.477 -42.24,29.477 -33,0 -58.96,-27.719 -58.96,-74.801 0,-39.168 25.07,-64.688 58.96,-64.688 25.52,0 44,11.887 56.76,28.165 l 9.25,-5.723 c -6.61,-28.602 -33.01,-53.68 -79.65,-53.68 -43.57,0 -82.29,30.36 -82.29,87.117 0,69.973 56.32,110.895 107.81,110.895 26.4,0 55.44,-11 55.44,-35.199"
         style="fill:#f2571a;fill-opacity:1;fill-rule:nonzero;stroke:none"
         id="path20" />
      <path
         d="m 1692.01,390.523 -22.01,5.286 v 16.718 h 57.21 V 281.84 c 0,-18.926 9.24,-29.043 26.4,-29.043 13.2,0 36.96,5.723 59.4,25.516 v 112.21 l -22,5.286 v 16.718 h 57.21 V 259.836 h 22 v -16.727 c -14.52,-3.515 -29.92,-9.679 -41.81,-19.355 l -15.4,2.637 2.2,31.687 c -22,-21.121 -47.08,-36.961 -74.37,-36.961 -27.71,0 -48.83,18.914 -48.83,43.563 v 125.843"
         style="fill:#f2571a;fill-opacity:1;fill-rule:nonzero;stroke:none"
         id="path22" />
      <path
         d="m 1907.62,227.719 h -11 l -8.79,53.679 13.19,3.079 c 10.57,-22.004 32.13,-42.239 59.41,-42.239 24.2,0 33.88,16.282 33.88,28.157 0,40.925 -99.88,33.886 -99.88,95.929 0,29.043 25.08,52.805 57.19,52.805 18.49,0 33.45,-6.164 41.37,-12.32 l 1.76,5.718 h 13.64 l 8.36,-47.082 -13.2,-3.078 c -5.71,12.758 -20.24,35.637 -47.96,35.637 -19.37,0 -27.73,-11.879 -27.73,-22.441 0,-37.395 99.02,-28.157 99.02,-93.286 0,-36.523 -31.69,-61.16 -66.89,-61.16 -18.92,0 -40.48,10.555 -47.97,20.242 l -4.4,-13.64"
         style="fill:#f2571a;fill-opacity:1;fill-rule:nonzero;stroke:none"
         id="path24" />
      <path
         d="m 2085.4,313.078 c 1.76,-33.875 24.21,-60.723 55,-60.723 26.85,0 45.34,11.887 58.98,32.122 l 9.24,-5.715 c -7.48,-33.887 -36.09,-57.645 -78.77,-57.645 -43.57,0 -80.97,31.238 -80.97,88.008 0,77 46.2,110.004 88.89,110.004 40.05,0 73.48,-23.766 73.48,-80.082 l -7.04,-10.567 z m 0.88,22.883 85.81,11.445 c 0,34.762 -17.6,49.282 -36.08,49.282 -33,0 -48.41,-27.719 -49.73,-60.727"
         style="fill:#f2571a;fill-opacity:1;fill-rule:nonzero;stroke:none"
         id="path26" />
      <path
         d="m 2560.21,332.883 c 0,-72.168 -42.25,-113.973 -115.72,-113.973 -73.49,0 -115.74,41.805 -115.74,113.973 v 161.051 l -22.88,4.839 v 19.364 H 2393 v -19.364 l -22.88,-4.839 V 338.605 c 0,-55.886 23.32,-89.765 82.29,-89.765 47.08,0 77.88,32.121 77.88,87.121 v 157.973 l -22.88,4.839 v 19.364 h 75.68 v -19.364 l -22.88,-4.839 V 332.883"
         style="fill:#f2571a;fill-opacity:1;fill-rule:nonzero;stroke:none"
         id="path28" />
      <path
         d="m 2592.35,227.719 v 16.719 l 17.59,4.402 v 126.285 l -22,6.16 v 15.403 c 21.57,3.519 32.13,10.562 41.81,25.082 l 15.4,-2.641 -2.21,-36.961 c 22.01,21.121 47.09,36.961 74.38,36.961 27.71,0 48.84,-18.922 48.84,-43.566 V 249.719 l 22,-5.281 v -16.719 h -74.81 v 16.719 l 17.6,4.402 v 109.562 c 0,18.926 -9.24,29.043 -26.4,29.043 -13.2,0 -36.96,-5.718 -59.4,-25.519 V 249.719 l 22,-5.281 v -16.719 h -74.8"
         style="fill:#f2571a;fill-opacity:1;fill-rule:nonzero;stroke:none"
         id="path30" />
      <path
         d="m 2812.37,227.719 v 16.719 l 19.8,4.843 v 125.844 l -22,6.16 v 15.403 c 21.56,3.519 32.13,10.562 41.81,25.082 l 15.4,-2.641 V 249.281 l 19.79,-4.843 v -16.719 z m 39.61,267.976 c 12.32,0 22,-9.683 22,-22 0,-12.32 -9.68,-22.004 -22,-22.004 -12.33,0 -22.01,9.684 -22.01,22.004 0,12.317 9.68,22 22.01,22"
         style="fill:#f2571a;fill-opacity:1;fill-rule:nonzero;stroke:none"
         id="path32" />
      <path
         d="m 2892.02,412.527 h 80.52 v -16.718 l -21.56,-5.286 50.61,-113.078 49.72,113.52 -20.68,4.844 v 16.718 h 67.32 v -16.718 c -10.99,-2.641 -19.36,-6.602 -25.08,-18.926 l -69.96,-153.57 h -15.85 l -69.08,153.128 c -5.72,11.887 -7.92,14.969 -25.96,19.368 v 16.718"
         style="fill:#f2571a;fill-opacity:1;fill-rule:nonzero;stroke:none"
         id="path34" />
      <path
         d="m 3132.73,313.078 c 1.76,-33.875 24.2,-60.723 55,-60.723 26.84,0 45.32,11.887 58.96,32.122 l 9.24,-5.715 c -7.48,-33.887 -36.07,-57.645 -78.76,-57.645 -43.56,0 -80.97,31.238 -80.97,88.008 0,77 46.21,110.004 88.89,110.004 40.04,0 73.49,-23.766 73.49,-80.082 l -7.04,-10.567 z m 0.88,22.883 85.81,11.445 c 0,34.762 -17.61,49.282 -36.1,49.282 -32.99,0 -48.39,-27.719 -49.71,-60.727"
         style="fill:#f2571a;fill-opacity:1;fill-rule:nonzero;stroke:none"
         id="path36" />
      <path
         d="m 3387.51,370.285 c -1.75,6.602 -8.8,13.199 -17.6,13.199 -13.65,0 -27.72,-11.879 -36.96,-23.316 V 249.711 l 21.99,-5.273 v -16.731 h -74.8 v 16.731 l 17.61,4.394 v 126.293 l -22,6.16 v 15.403 c 21.56,3.519 32.11,10.562 41.79,25.078 l 15.41,-2.637 -2.2,-39.606 c 10.11,17.606 26.84,39.606 53.24,39.606 12.76,0 26.4,-7.918 26.4,-24.199 0,-15.407 -11.44,-24.645 -22.88,-24.645"
         style="fill:#f2571a;fill-opacity:1;fill-rule:nonzero;stroke:none"
         id="path38" />
      <path
         d="m 3438.56,227.719 h -11 l -8.8,53.679 13.2,3.079 c 10.56,-22.004 32.13,-42.239 59.41,-42.239 24.2,0 33.88,16.282 33.88,28.157 0,40.925 -99.89,33.886 -99.89,95.929 0,29.043 25.08,52.805 57.2,52.805 18.49,0 33.45,-6.164 41.37,-12.32 l 1.76,5.718 h 13.64 l 8.36,-47.082 -13.2,-3.078 c -5.72,12.758 -20.24,35.637 -47.96,35.637 -19.37,0 -27.73,-11.879 -27.73,-22.441 0,-37.395 99.01,-28.157 99.01,-93.286 0,-36.523 -31.68,-61.16 -66.88,-61.16 -18.92,0 -40.49,10.555 -47.97,20.242 l -4.4,-13.64"
         style="fill:#f2571a;fill-opacity:1;fill-rule:nonzero;stroke:none"
         id="path40" />
      <path
         d="m 3579.82,227.719 v 16.719 l 19.8,4.843 v 125.844 l -22,6.16 v 15.403 c 21.56,3.519 32.12,10.562 41.8,25.082 l 15.41,-2.641 V 249.281 l 19.79,-4.843 v -16.719 z m 39.6,267.976 c 12.32,0 22,-9.683 22,-22 0,-12.32 -9.68,-22.004 -22,-22.004 -12.32,0 -22,9.684 -22,22.004 0,12.317 9.68,22 22,22"
         style="fill:#f2571a;fill-opacity:1;fill-rule:nonzero;stroke:none"
         id="path42" />
      <path
         d="m 3692.02,260.277 v 130.254 h -28.6 v 16.719 c 24.21,4.398 40.05,26.398 48.41,50.164 l 15.4,-2.641 v -42.246 h 48.4 v -21.996 h -48.4 V 267.758 c 0,-13.645 6.16,-21.125 17.6,-21.125 8.36,0 16.28,5.285 20.68,10.566 l 9.24,-7.039 c -4.83,-14.082 -20.67,-29.043 -41.8,-29.043 -23.32,0 -40.93,13.641 -40.93,39.16"
         style="fill:#f2571a;fill-opacity:1;fill-rule:nonzero;stroke:none"
         id="path44" />
      <path
         d="m 3827.12,130.91 c -14.08,-6.16 -25.95,0 -29.04,10.559 l 44.44,86.238 -66.88,148.742 c -5.29,11.879 -15.84,14.074 -28.17,14.074 h -37.4 v 22.004 h 120.13 v -16.718 l -21.55,-5.286 50.59,-113.089 49.73,113.531 -20.69,4.844 v 16.718 h 67.33 v -16.718 c -11,-2.641 -19.36,-6.606 -25.08,-18.922 l -69.96,-153.574 -33.45,-92.403"
         style="fill:#f2571a;fill-opacity:1;fill-rule:nonzero;stroke:none"
         id="path46" />
      <path
         d="m 358.309,511.188 c 9.574,0 175.601,0.023 185.171,0.023 v 134.961 c -3.05,2.906 -103.433,99.254 -106.32,102.035 H 102.867 C 99.9648,745.328 2.94141,649.125 0,646.188 V 398.641 c 2.875,-2.903 95.8047,-96.969 98.7188,-99.899 H 358.309 V 155.188 H 186.742 v 81.828 c -9.59,0 -177.16778,0 -186.742,-0.012 L 0,102.023 C 2.92969,99.1055 99.9648,2.88281 102.867,0.00390625 H 437.16 C 440.047,2.77734 540.43,99.125 543.48,102.074 v 247.489 c -2.867,2.91 -95.8,96.984 -98.726,99.933 H 186.742 v 143.527 h 171.567 v -81.835"
         style="fill:#f2571a;fill-opacity:1;fill-rule:nonzero;stroke:none"
         id="path48" />
    </g>
  </g>
</svg>
